<svg xmlns="http://www.w3.org/2000/svg" xmlns:xlink="http://www.w3.org/1999/xlink" id="图层_1" x="0" y="0" version="1.1" viewBox="0 0 464.6 464.6" style="enable-background:new 0 0 464.6 464.6" xml:space="preserve"><style type="text/css">.st0{fill:#fff}.st1{fill:#390176}.st2{fill:url(#SVGID_1_)}.st14,.st3{opacity:.2;enable-background:new}.st3{fill:#231f1f}.st14{fill:#fff}.st15{opacity:.4}.st17{opacity:.3;fill:#fff;enable-background:new}</style><rect width="464.6" height="464.6" class="st0"/><g><g><g><g id="XMLID_00000029762027609491839360000001997232019832566928_"><g><path d="M328.8,299.9c-0.8-16.6-7.3-31.4-12.6-40.9c-5.4-9.8-10.6-16-11.3-16.8c-5.7-7.8-22.5-22.4-32.2-28 c-8.7-5-14-14.3-14-24.3v-53.7c1.4-0.7,2.7-1.6,3.8-2.5c3.2-2.7,5.2-7.6,5.2-10.8c0-1.1-0.2-6.9-3.4-9.5 c-5.5-4.6-17.4-7.3-31.9-7.3c-12.9,0-25.6,2.8-31.5,7c-3.7,2.6-3.7,7.2-3.7,9.7v0.1c0,3.5,2.5,9,6.7,12 c0.7,0.5,1.4,0.9,2.2,1.4v53.6c0,10-5.4,19.3-14,24.3c-9.7,5.6-26.5,20.2-32.2,28c-0.7,0.8-6,7.1-11.3,16.8 c-5.3,9.5-11.8,24.4-12.6,40.9c-0.8,15.6,5.3,28.5,18.1,38.3c11.1,8.5,26.9,14.7,48.3,18.9c5.5,1.1,19.1,1.5,30,1.5 c10.9,0,24.6-0.4,30-1.5c21.5-4.3,37.3-10.5,48.3-18.9C323.4,328.3,329.5,315.5,328.8,299.9z M202.6,122.9v-0.2 c0-1.7,0-4.3,1.4-5.2c5.1-3.5,16.7-6,28.4-6c13,0,23.9,2.3,28.4,6c0.7,0.5,1.4,2.9,1.4,5.3c0,1.6-1.3,5-3.2,6.6 c-4.7,3.9-14.1,6-26.6,6c-12.1,0-20.6-1.7-25.4-5.1C204,128.3,202.6,124.4,202.6,122.9z M261.3,351.7c-4.2,0.8-15.5,1.4-29,1.4 c-13.4,0-24.8-0.5-29-1.4c-43-8.5-63.3-25.4-62-51.5c1.5-29.6,22.5-54.3,22.7-54.6l0.1-0.1c5.3-7.3,21.3-21.2,30.5-26.5 c10.4-6,16.8-17.1,16.8-29.1v-51.4c5.4,1.6,12.2,2.5,20.8,2.5c8.3,0,15.3-0.9,20.8-2.6v51.5c0,12,6.4,23.1,16.8,29.1 c9.2,5.3,25.2,19.2,30.5,26.6l0.1,0.1c0.2,0.2,21.2,24.9,22.7,54.5C324.5,326.3,304.3,343.2,261.3,351.7z" class="st1"/><path d="M327.5,300c0.7,15.2-5.2,27.7-17.6,37.2c-10.9,8.4-26.5,14.5-47.8,18.7c-4.9,1-17.3,1.5-29.8,1.5 c-12.5,0-24.9-0.5-29.8-1.5c-21.3-4.2-36.9-10.3-47.8-18.7c-12.4-9.5-18.4-22.1-17.6-37.2c0.8-16.3,7.2-31,12.4-40.4 c5.5-9.8,10.7-16,11.2-16.7c5.6-7.7,22.2-22.1,31.8-27.7c9-5.2,14.6-14.9,14.6-25.4v-54.4c-1-0.5-1.9-1-2.7-1.6 c-3.8-2.7-6.2-7.8-6.2-11v-0.1c0-2.4,0-6.5,3.2-8.7c5.8-4,18.2-6.7,30.8-6.7c14.2,0,25.8,2.6,31.1,7c2.9,2.4,2.9,8,2.9,8.6 c0,2.9-1.8,7.4-4.7,9.9c-1,0.9-2.4,1.8-4.2,2.6v54.5c0,10.4,5.6,20.2,14.6,25.4c9.6,5.5,26.2,20,31.8,27.7 c0.6,0.7,5.8,6.9,11.2,16.7C320.3,269,326.7,283.6,327.5,300z M261.5,352.9c43.7-8.7,64.3-25.9,63-52.8 c-1.5-30.1-22.8-55-23-55.3l-0.1-0.1c-5.4-7.4-21.5-21.5-30.9-26.9c-10-5.7-16.2-16.5-16.2-28v-53.2c-4.8,1.7-11.9,3-22,3 c-9.3,0-16.6-1-22.1-2.9v53.1c0,11.5-6.2,22.3-16.2,28c-9.4,5.4-25.5,19.4-30.9,26.9l-0.1,0.1c-0.2,0.2-21.5,25.2-23,55.3 c-1.3,26.8,19.3,44.1,63,52.8C212.4,354.7,252.2,354.7,261.5,352.9z M263.3,122.9c0-2.3-0.6-5.2-1.8-6.2 c-4.7-3.9-15.8-6.3-29.1-6.3c-11.9,0-23.9,2.5-29.1,6.2c-1.9,1.3-1.9,4.3-1.9,6.2v0.1c0,2,1.7,6.2,4.9,8.5 c5,3.5,13.7,5.3,26.1,5.3c12.8,0,22.5-2.2,27.3-6.3C261.9,128.5,263.3,124.7,263.3,122.9z" class="st1"/><radialGradient id="SVGID_1_" cx="208.969" cy="346.231" r="238.663" gradientUnits="userSpaceOnUse"><stop offset="0" style="stop-color:#99e8f0"/><stop offset=".137" style="stop-color:#7682f0"/><stop offset=".167" style="stop-color:#798df1"/><stop offset=".274" style="stop-color:#84b0f6"/><stop offset=".388" style="stop-color:#8dcdf9"/><stop offset=".508" style="stop-color:#94e3fc"/><stop offset=".64" style="stop-color:#98f3fe"/><stop offset=".79" style="stop-color:#9bfcff"/><stop offset=".999" style="stop-color:#9cffff"/></radialGradient><path d="M314.1,329.3C314.1,329.3,314.1,329.3,314.1,329.3c-6.8,7.3-16.9,13.2-30.5,17.8c-6.6,2.2-14,4.2-22.2,5.8 c-0.8,0.2-1.8,0.3-3,0.4c-12.9,1.4-46.9,1.2-55.4-0.4c-43.7-8.7-64.3-25.9-63-52.8c1.5-30.1,22.8-55,23-55.3l0.1-0.1 c5.4-7.4,21.5-21.5,30.9-26.9c10-5.7,16.2-16.5,16.2-28v-53.1c5.4,2,12.7,2.9,22.1,2.9h0c5.6,0,10.2-0.4,14.1-1 c3.2-0.5,5.8-1.2,7.9-2v53.2c0,11.5,6.2,22.3,16.2,28c9.4,5.4,25.5,19.4,30.9,26.9l0.1,0.1c0.2,0.3,21.5,25.2,23,55.3 C325,311.5,321.6,321.2,314.1,329.3z" class="st2"/><path d="M263.4,348.7l-5,4.6c-12.9,1.4-46.9,1.2-55.4-0.4c-43.7-8.7-64.3-25.9-63-52.8c1.5-30.1,22.8-55,23-55.3 l0.1-0.1c5.4-7.4,21.5-21.5,30.9-26.9c10-5.7,16.2-16.5,16.2-28v-43.5c2.9,1.2,2.1,5.5,2.1,8.2s-0.2,15.6,0,30 c0.2,14.4,1.6,18.6-5.4,27.7c-6.5,8.3-21.6,12.9-36.4,29.2c-9.6,10.6-17.1,20.5-22.4,31.9c-5.3,11.4-8.5,31.1-0.8,46.8 c7.7,15.7,41.1,27.6,57,29.8C220.1,352.1,263.4,348.7,263.4,348.7z" class="st3"/><g><path d="M232.3,350.7c-13.1,0-23.7-0.5-27.8-1.3c-20.6-4.1-36-10.3-45.8-18.5c-9.7-8.1-14.1-18.2-13.5-30.7 c0.5-9.9,1.4-20.2,6.9-27.5c7.4-9.7,15.6-14.1,26.7-14.1c5.9,0,12.1,1.2,19.2,2.5c8.7,1.7,18.6,3.6,30.2,3.6 c0.6,0,1.1,0,1.7,0c9.2-0.1,19.5-3.6,29.4-6.9c10-3.3,19.4-6.5,27.9-6.5c10.2,0,17.6,4.8,21.9,14.2 c7.1,15.5,9.6,21.6,10.2,34.6c0.6,12.5-3.8,22.6-13.5,30.7c-9.8,8.2-25.2,14.4-45.8,18.5C256,350.2,245.4,350.7,232.3,350.7z" class="st1"/><radialGradient id="SVGID_00000111899352263606768680000014177712106076111016_" cx="149.835" cy="328.105" r="186.581" gradientUnits="userSpaceOnUse"><stop offset="0" style="stop-color:#752cf7"/><stop offset=".321" style="stop-color:#b376f7"/><stop offset=".388" style="stop-color:#ae7ef6"/><stop offset=".494" style="stop-color:#9e95f5"/><stop offset=".625" style="stop-color:#86b9f2"/><stop offset=".7" style="stop-color:#76d1f0"/><stop offset=".999" style="stop-color:#dc72e8"/></radialGradient><path style="fill:url(#SVGID_00000111899352263606768680000014177712106076111016_)" d="M232.3,348.6 c-12.8,0-23.5-0.5-27.4-1.3c-20.3-4-35.4-10.1-44.9-18c-9.2-7.7-13.4-17.2-12.8-29c0.5-9.6,1.4-19.5,6.5-26.4 c6.9-9.2,14.7-13.3,25.1-13.3c5.7,0,11.8,1.2,18.8,2.5c8.8,1.7,18.7,3.6,30.5,3.6c0.6,0,1.1,0,1.7,0c9.5-0.2,20-3.6,30-7 c9.8-3.3,19.1-6.4,27.2-6.4c9.5,0,16,4.3,20,13c7,15.3,9.4,21.2,10.1,33.9c0.6,11.8-3.6,21.3-12.8,29 c-9.5,7.9-24.6,14-44.9,18C255.8,348.2,245.1,348.6,232.3,348.6z"/><path d="M270.3,292.2c-3.1,0-6.2,0-9.1-0.1c-1.3,0-2.5,0-3.6-0.1c-6.4-0.1-12.6-1.2-19.2-2.4 c-7.8-1.4-16.6-3-27.2-3c-7.2,0-14.5,0.7-22.2,2.2c-7.8,1.5-16.6,3.1-23.6,3.1c-7.5,0-12.3-1.8-14.5-5.6 c-2.1-3.4-1.7-7.8,1-13l0.2-0.3l0.2-0.3c7.4-9.7,15.6-14.1,26.7-14.1c5.9,0,12.1,1.2,19.2,2.5c8.7,1.7,18.6,3.6,30.2,3.6 c0.6,0,1.1,0,1.7,0c9.2-0.1,19.5-3.6,29.4-6.9c10-3.3,19.4-6.5,27.9-6.5c10.2,0,17.6,4.8,21.9,14.2c2.8,6.4,2.8,11.8,0,16.3 C303.2,290.9,286.2,292.2,270.3,292.2z" class="st1"/><linearGradient id="SVGID_00000024706344083079417700000017424744650293344674_" x1="151.531" x2="309.193" y1="271.755" y2="271.755" gradientUnits="userSpaceOnUse"><stop offset="0" style="stop-color:#ff7fed"/><stop offset="1" style="stop-color:#e9cff6"/></linearGradient><path style="fill:url(#SVGID_00000024706344083079417700000017424744650293344674_)" d="M307.4,280.7 c-1.4,2.2-3.6,3.9-6.4,5.2c-7.6,3.6-19.4,4.2-30.6,4.2c-3.1,0-6.2,0-9.1-0.1c-1.2,0-2.4,0-3.6-0.1c-4.5-0.1-9-0.7-13.7-1.5 c-1.7-0.3-3.4-0.6-5.2-0.9c-5.8-1.1-12.1-2.2-19.3-2.7c-2.6-0.2-5.4-0.3-8.3-0.3c-4.4,0-8.7,0.3-13.2,0.8h0 c-3.1,0.4-6.2,0.9-9.5,1.5c-7.7,1.5-16.4,3-23.3,3c-6.7,0-10.9-1.5-12.8-4.6c-1.7-2.7-1.3-6.4,1.1-11l0.1-0.2l0.1-0.2 c6.9-9.2,14.7-13.3,25.1-13.3c5.8,0,11.8,1.2,18.8,2.5c8.8,1.7,18.7,3.6,30.5,3.6c0.6,0,1.1,0,1.7,0c9.5-0.2,20-3.6,30-7 c9.8-3.3,19.1-6.4,27.2-6.4c9.5,0,16,4.3,20,13C309.8,272.1,309.8,276.9,307.4,280.7z"/><linearGradient id="SVGID_00000119082744054392127860000000598426474884003510_" x1="224.55" x2="304.715" y1="275.005" y2="275.005" gradientUnits="userSpaceOnUse"><stop offset="0" style="stop-color:#cd5ded"/><stop offset="1" style="stop-color:#e9a0f6"/></linearGradient><path style="opacity:.57;fill:url(#SVGID_00000119082744054392127860000000598426474884003510_)" d="M301,285.9L301,285.9 c-7.6,3.6-19.4,4.2-30.6,4.2c-3.1,0-6.2,0-9.1-0.1c-1.2,0-2.4,0-3.6-0.1c-4.5-0.1-9-0.7-13.7-1.5 c-22.6-5.4-25.2-13.4-9.2-16.8c16-3.3,25.7-4.5,48.3-11.3C297.3,256.3,311.7,275.2,301,285.9z"/><linearGradient id="SVGID_00000079444960275645373690000001865135731356887685_" x1="167.723" x2="222.807" y1="274.212" y2="274.212" gradientUnits="userSpaceOnUse"><stop offset="0" style="stop-color:#cd5ded"/><stop offset="1" style="stop-color:#e9a0f6"/></linearGradient><path style="opacity:.57;fill:url(#SVGID_00000079444960275645373690000001865135731356887685_)" d="M219.5,284.7 c-3.3-0.3-6.8-0.2-10.5-0.4c-21.9-1.2-31.4-8.9-37.1-12.2c-10.4-6.1-0.2-10,15.9-7.9C214.7,267.8,229.9,286.1,219.5,284.7z"/><linearGradient id="SVGID_00000025418005290413825360000001924587516503037064_" x1="154.146" x2="189.405" y1="279.601" y2="279.601" gradientUnits="userSpaceOnUse"><stop offset="0" style="stop-color:#cd5ded"/><stop offset="1" style="stop-color:#e9a0f6"/></linearGradient><path style="opacity:.57;fill:url(#SVGID_00000025418005290413825360000001924587516503037064_)" d="M186,281.3 c-11-4.3-15.3-9.2-20.8-9.2c-5.5,0-10.4,4.3-11,8.5c-0.6,4.3,2.4,6.7,15.6,6.4C188.4,286.8,193.7,284.3,186,281.3z"/></g><linearGradient id="SVGID_00000160884423066991364530000008077684953926989470_" x1="201.346" x2="263.285" y1="123.484" y2="123.484" gradientUnits="userSpaceOnUse"><stop offset="0" style="stop-color:#99e8f0"/><stop offset=".999" style="stop-color:#c2ffff"/></linearGradient><path style="fill:url(#SVGID_00000160884423066991364530000008077684953926989470_)" d="M261.5,116.6 c-4.7-3.9-15.8-6.3-29.1-6.3c-5.3,0-10.6,0.5-15.3,1.4h0c-5.9,1.1-10.9,2.8-13.8,4.8c-1.9,1.3-1.9,4.3-1.9,6.2v0.1 c0,2,1.8,6.2,4.9,8.5c5,3.5,13.7,5.3,26.1,5.3c12.8,0,22.5-2.2,27.3-6.3c2.3-1.9,3.6-5.6,3.6-7.5 C263.3,120.6,262.6,117.6,261.5,116.6z M209.3,120.1c0-2.5,2.5-4.4,7.4-5.8c4.2-1.2,9.7-1.9,15.6-1.9c2.1,0,4.3,0.1,6.4,0.3 c8.8,0.8,16.6,3.1,16.6,7.4c0,2.5-2.5,4.4-7.4,5.8c-4.2,1.2-9.7,1.9-15.6,1.9c-5.9,0-12-0.7-16.4-2.1 C212,124.4,209.3,122.5,209.3,120.1z"/><path d="M263.3,122.9c0,1.9-1.4,5.6-3.6,7.5c-4.9,4-14.6,6.3-27.3,6.3c-12.3,0-21.1-1.8-26.1-5.3 c-3.2-2.2-4.9-6.4-4.9-8.5v-0.1c0-2,0-4.9,1.9-6.2c2.9-2,7.9-3.7,13.8-4.8h0c8.5-1,21.6,1,21.6,1c-2.1-0.2-4.2-0.3-6.4-0.3 c-5.9,0-11.4,0.7-15.6,1.9c-4.9,1.4-7.4,3.4-7.4,5.8c0,2.5,2.6,4.3,6.5,5.6c-5.5,0.1-6.1,3.6-1.3,5.9c4.8,2.3,25.1,2,35.6,0 C260.7,129.5,263.3,122.9,263.3,122.9z" class="st3"/><path d="M255.3,120.1c0,2.5-2.5,4.4-7.4,5.8c-4.2,1.2-9.7,1.9-15.6,1.9c-11.1,0-23-2.4-23-7.7 c0-2.5,2.5-4.4,7.4-5.8c4.2-1.2,9.7-1.9,15.6-1.9C243.4,112.4,255.3,114.8,255.3,120.1z M252.2,120.1c0-1.4-6.8-4.6-19.9-4.6 c-13.1,0-19.9,3.2-19.9,4.6s6.8,4.6,19.9,4.6C245.5,124.7,252.2,121.4,252.2,120.1z" class="st1"/><linearGradient id="SVGID_00000180350183134544822360000002044446353300375470_" x1="212.405" x2="252.231" y1="120.062" y2="120.062" gradientUnits="userSpaceOnUse"><stop offset="0" style="stop-color:#99e8f0"/><stop offset=".999" style="stop-color:#c2ffff"/></linearGradient><ellipse style="fill:url(#SVGID_00000180350183134544822360000002044446353300375470_)" cx="232.3" cy="120.1" rx="19.9" ry="4.6"/><ellipse cx="232.3" cy="120.1" class="st3" rx="19.9" ry="4.6"/><ellipse cx="232.3" cy="120.1" class="st3" rx="19.9" ry="4.6"/><path d="M216.2,122.5c3.3,1.1,8.7,2.2,16.1,2.2s12.8-1,16.1-2.2c-3.3-1.1-8.7-2.2-16.1-2.2 S219.5,121.4,216.2,122.5z" class="st3"/><path d="M263.4,348.7c0,0-43.3,3.4-59.2,1.2c-15.9-2.1-49.2-14.1-57-29.8c-7.7-15.7-4.5-35.5,0.8-46.8 c5.3-11.4,12.8-21.4,22.4-31.9c14.8-16.3,30-20.9,36.4-29.2c7.1-9.1,5.6-13.2,5.4-27.7c-0.2-14.4,0-27.3,0-30s0.8-7-2.1-8.2 v-9.5c5.4,2,12.7,2.9,22.1,2.9c0.4,0,0.8,0,1.1,0c0.3,0,0.6,0,0.9,0c0.9,0,1.8,0,2.6-0.1c0.2,0,0.5,0,0.7,0 c1.7-0.1,3.3-0.2,4.8-0.4c0.4,0,0.8-0.1,1.2-0.1c0.7-0.1,1.3-0.2,1.9-0.3c0.3,0,0.5-0.1,0.7-0.1c0.6-0.1,1.2-0.2,1.7-0.3 c0.3-0.1,0.7-0.1,1-0.2c0.6-0.1,1.2-0.3,1.8-0.4c0.3-0.1,0.5-0.1,0.8-0.2c0.2-0.1,0.5-0.1,0.7-0.2c0.7-0.2,1.3-0.4,1.9-0.6v7.4 c0,0-13,3.5-22,3.2c-2.8-0.1-5.1,0-6.9,0.3c0,0-0.1,0-0.1,0c-3.7,0.7-5.2,2.6-5.2,6.7v46.4c0,6.7-1.5,15.4-9,21.5 c-7.5,6-33.3,26.5-35.4,53.8C173.8,303.2,184,342.9,263.4,348.7z" class="st3"/><linearGradient id="SVGID_00000002357691230497569630000008234726978397075868_" x1="251.849" x2="237.379" y1="197.159" y2="147.721" gradientUnits="userSpaceOnUse"><stop offset="0" style="stop-color:#fff"/><stop offset=".999" style="stop-color:#fff;stop-opacity:0"/></linearGradient><path style="fill:url(#SVGID_00000002357691230497569630000008234726978397075868_)" d="M240.9,153.3c0-2.5,2.1-4.6,4.6-4.6 s4.6,2.1,4.6,4.6v44.2c0,2.5-2.1,4.6-4.6,4.6s-4.6-2.1-4.6-4.6V153.3z"/><g><path d="M263.4,348.7c-79.4-5.8-89.7-45.5-87.6-72.8c2.1-27.3,27.9-47.8,35.4-53.8c7.5-6,9-14.7,9-21.5v-46.4 c0-4.1,1.4-6,5.2-6.7c0.3,16.5,2.7,61.9,0,69.1c-2.7,7.2-22.4,18.8-28.4,31.9C190.9,261.7,170.6,332.6,263.4,348.7z" class="st3"/><path d="M263.4,348.7c0,0-43.3,3.4-59.2,1.2c-15.9-2.1-49.2-14.1-57-29.8c-7.7-15.7-4.5-35.5,0.8-46.8 c5.3-11.4,12.8-21.4,22.4-31.9c14.8-16.3,30-20.9,36.4-29.2c7.1-9.1,5.6-13.2,5.4-27.7c-0.2-14.4,0-27.3,0-30s0.8-7-2.1-8.2 v-9.5c5.4,2,12.7,2.9,22.1,2.9c0.4,0,0.8,0,1.1,0c0.3,0,0.6,0,0.9,0c0.9,0,1.8,0,2.6-0.1c0.2,0,0.5,0,0.7,0 c1.7-0.1,3.3-0.2,4.8-0.4c0.4,0,0.8-0.1,1.2-0.1c0.7-0.1,1.3-0.2,1.9-0.3c0.3,0,0.5-0.1,0.7-0.1c0.6-0.1,1.2-0.2,1.7-0.3 c0.3-0.1,0.7-0.1,1-0.2c0.6-0.1,1.2-0.3,1.8-0.4c0.3-0.1,0.5-0.1,0.8-0.2c0.2-0.1,0.5-0.1,0.7-0.2c0.7-0.2,1.3-0.4,1.9-0.6 v7.4c0,0-13,3.5-22,3.2c-2.8-0.1-5.1,0-6.9,0.3c0,0-0.1,0-0.1,0c-3.7,0.7-5.2,2.6-5.2,6.7v46.4c0,6.7-1.5,15.4-9,21.5 c-7.5,6-33.3,26.5-35.4,53.8C173.8,303.2,184,342.9,263.4,348.7z" class="st3"/></g></g></g><g><linearGradient id="SVGID_00000062899635889208268090000010844181356126441631_" x1="2508.824" x2="2504.141" y1="-1798.138" y2="-1785.19" gradientTransform="matrix(-0.9986 5.236043e-02 -5.236043e-02 -0.9986 2667.9177 -1687.9823)" gradientUnits="userSpaceOnUse"><stop offset=".001" style="stop-color:#fff;stop-opacity:0"/><stop offset="1" style="stop-color:#fff"/></linearGradient><circle style="fill:url(#SVGID_00000062899635889208268090000010844181356126441631_)" cx="258.7" cy="232.5" r="6.7"/></g><g><linearGradient id="SVGID_00000039120261464060169900000009850299508594261418_" x1="281.376" x2="298.166" y1="300.951" y2="245.631" gradientUnits="userSpaceOnUse"><stop offset=".001" style="stop-color:#fff;stop-opacity:0"/><stop offset="1" style="stop-color:#fff"/></linearGradient><path style="fill:url(#SVGID_00000039120261464060169900000009850299508594261418_)" d="M307.1,308.5c-2.4,0-4.4-1.7-4.8-4.1 c-5.5-35.6-32.5-57.4-32.8-57.6c-2.1-1.7-2.5-4.7-0.8-6.9c1.7-2.1,4.7-2.5,6.9-0.8c1.2,1,30.3,24.3,36.4,63.8 c0.4,2.7-1.4,5.2-4.1,5.6C307.6,308.5,307.3,308.5,307.1,308.5z"/></g><g><circle cx="244" cy="332.2" r="4.6" class="st14"/><g class="st15"><linearGradient id="SVGID_00000181088317577864282670000018351053274278546353_" x1="239.439" x2="246.337" y1="-1334.327" y2="-1334.327" gradientTransform="matrix(1 0 0 -1 0 -1001.9482)" gradientUnits="userSpaceOnUse"><stop offset=".289" style="stop-color:#fff"/><stop offset=".78" style="stop-color:#fff;stop-opacity:0"/></linearGradient><path style="opacity:.6;fill:url(#SVGID_00000181088317577864282670000018351053274278546353_);enable-background:new" d="M241.4,335.1c-1.8-1.8-1.8-4.7,0-6.5c0.3-0.3,0.6-0.5,1-0.7c-0.6,0.2-1.1,0.6-1.6,1c-1.8,1.8-1.8,4.7,0,6.5 c1.5,1.5,3.8,1.8,5.6,0.7C244.7,336.8,242.7,336.5,241.4,335.1z"/></g><circle cx="245.6" cy="329.9" r="1" class="st17"/></g><g><circle cx="262.3" cy="327.4" r="3.4" class="st14"/><g class="st15"><linearGradient id="SVGID_00000147220436152426913220000009455074026119432873_" x1="258.975" x2="264.039" y1="-1329.408" y2="-1329.408" gradientTransform="matrix(1 0 0 -1 0 -1001.9482)" gradientUnits="userSpaceOnUse"><stop offset=".289" style="stop-color:#fff"/><stop offset=".78" style="stop-color:#fff;stop-opacity:0"/></linearGradient><path style="opacity:.6;fill:url(#SVGID_00000147220436152426913220000009455074026119432873_);enable-background:new" d="M260.4,329.5c-1.3-1.3-1.3-3.4,0-4.8c0.2-0.2,0.4-0.4,0.7-0.5c-0.4,0.1-0.8,0.4-1.2,0.7c-1.3,1.3-1.3,3.4,0,4.8 c1.1,1.1,2.8,1.3,4.1,0.5C262.9,330.7,261.4,330.5,260.4,329.5z"/></g><circle cx="263.5" cy="325.6" r=".7" class="st17"/></g><g><circle cx="273.3" cy="317.6" r="3.4" class="st14"/><g class="st15"><linearGradient id="SVGID_00000070811789350774479640000017947696006685548476_" x1="269.965" x2="275.028" y1="-1319.639" y2="-1319.639" gradientTransform="matrix(1 0 0 -1 0 -1001.9482)" gradientUnits="userSpaceOnUse"><stop offset=".289" style="stop-color:#fff"/><stop offset=".78" style="stop-color:#fff;stop-opacity:0"/></linearGradient><path style="opacity:.6;fill:url(#SVGID_00000070811789350774479640000017947696006685548476_);enable-background:new" d="M271.4,319.7c-1.3-1.3-1.3-3.4,0-4.8c0.2-0.2,0.4-0.4,0.7-0.5c-0.4,0.1-0.8,0.4-1.2,0.7c-1.3,1.3-1.3,3.4,0,4.8 c1.1,1.1,2.8,1.3,4.1,0.5C273.8,321,272.4,320.7,271.4,319.7z"/></g><circle cx="274.5" cy="315.8" r=".7" class="st17"/></g><g><circle cx="195.2" cy="316.4" r="3.4" class="st14"/><g class="st15"><linearGradient id="SVGID_00000028289045114925378660000013630117896656007319_" x1="191.816" x2="196.88" y1="-1318.418" y2="-1318.418" gradientTransform="matrix(1 0 0 -1 0 -1001.9482)" gradientUnits="userSpaceOnUse"><stop offset=".289" style="stop-color:#fff"/><stop offset=".78" style="stop-color:#fff;stop-opacity:0"/></linearGradient><path style="opacity:.6;fill:url(#SVGID_00000028289045114925378660000013630117896656007319_);enable-background:new" d="M193.3,318.5c-1.3-1.3-1.3-3.4,0-4.8c0.2-0.2,0.4-0.4,0.7-0.5c-0.4,0.1-0.8,0.4-1.2,0.7c-1.3,1.3-1.3,3.4,0,4.8 c1.1,1.1,2.8,1.3,4.1,0.5C195.7,319.7,194.2,319.5,193.3,318.5z"/></g><circle cx="196.4" cy="314.6" r=".7" class="st17"/></g><g><circle cx="172" cy="307.8" r="3.4" class="st14"/><g class="st15"><linearGradient id="SVGID_00000020360642038814673140000011741253680172428984_" x1="168.615" x2="173.679" y1="-1309.871" y2="-1309.871" gradientTransform="matrix(1 0 0 -1 0 -1001.9482)" gradientUnits="userSpaceOnUse"><stop offset=".289" style="stop-color:#fff"/><stop offset=".78" style="stop-color:#fff;stop-opacity:0"/></linearGradient><path style="opacity:.6;fill:url(#SVGID_00000020360642038814673140000011741253680172428984_);enable-background:new" d="M170.1,310c-1.3-1.3-1.3-3.4,0-4.8c0.2-0.2,0.4-0.4,0.7-0.5c-0.4,0.1-0.8,0.4-1.2,0.7c-1.3,1.3-1.3,3.4,0,4.8 c1.1,1.1,2.8,1.3,4.1,0.5C172.5,311.2,171,311,170.1,310z"/></g><circle cx="173.2" cy="306.1" r=".7" class="st17"/></g><g><circle cx="233.3" cy="320.3" r="5.5" class="st14"/><g class="st15"><linearGradient id="SVGID_00000013153148559247821250000004068223042380159876_" x1="227.839" x2="236.113" y1="-1322.447" y2="-1322.447" gradientTransform="matrix(1 0 0 -1 0 -1001.9482)" gradientUnits="userSpaceOnUse"><stop offset=".289" style="stop-color:#fff"/><stop offset=".78" style="stop-color:#fff;stop-opacity:0"/></linearGradient><path style="opacity:.6;fill:url(#SVGID_00000013153148559247821250000004068223042380159876_);enable-background:new" d="M230.2,323.8c-2.2-2.2-2.2-5.6,0-7.8c0.4-0.4,0.7-0.6,1.2-0.8c-0.7,0.2-1.3,0.7-1.9,1.2c-2.2,2.2-2.2,5.6,0,7.8 c1.8,1.8,4.6,2.2,6.7,0.8C234.2,325.9,231.8,325.5,230.2,323.8z"/></g><circle cx="235.3" cy="317.5" r="1.2" class="st17"/></g><g><circle cx="253.5" cy="310" r="7.3" class="st14"/><g class="st15"><linearGradient id="SVGID_00000103954418969719008570000008193938016945595009_" x1="246.157" x2="257.182" y1="-1312.12" y2="-1312.12" gradientTransform="matrix(1 0 0 -1 0 -1001.9482)" gradientUnits="userSpaceOnUse"><stop offset=".289" style="stop-color:#fff"/><stop offset=".78" style="stop-color:#fff;stop-opacity:0"/></linearGradient><path style="opacity:.6;fill:url(#SVGID_00000103954418969719008570000008193938016945595009_);enable-background:new" d="M249.3,314.6c-2.9-2.9-2.9-7.5,0-10.4c0.5-0.5,1-0.8,1.6-1.1c-1,0.3-1.8,1-2.6,1.6c-2.9,2.9-2.9,7.5,0,10.4 c2.4,2.4,6.1,2.9,8.9,1.1C254.6,317.3,251.4,316.8,249.3,314.6z"/></g><circle cx="256" cy="306.1" r="1.6" class="st17"/></g><g><circle cx="217.5" cy="299.6" r="7.3" class="st14"/><g class="st15"><linearGradient id="SVGID_00000067955144978931420070000009539700921394611879_" x1="210.136" x2="221.16" y1="-1301.741" y2="-1301.741" gradientTransform="matrix(1 0 0 -1 0 -1001.9482)" gradientUnits="userSpaceOnUse"><stop offset=".289" style="stop-color:#fff"/><stop offset=".78" style="stop-color:#fff;stop-opacity:0"/></linearGradient><path style="opacity:.6;fill:url(#SVGID_00000067955144978931420070000009539700921394611879_);enable-background:new" d="M213.3,304.2c-2.9-2.9-2.9-7.5,0-10.4c0.5-0.5,1-0.8,1.6-1.1c-1,0.3-1.8,1-2.6,1.6c-2.9,2.9-2.9,7.5,0,10.4 c2.4,2.4,6.1,2.9,8.9,1.1C218.6,306.9,215.4,306.4,213.3,304.2z"/></g><circle cx="220" cy="295.8" r="1.6" class="st17"/></g></g><g><linearGradient id="SVGID_00000129893484647765521900000012607539339655477642_" x1="1992.222" x2="2011.388" y1="2273.552" y2="2210.405" gradientTransform="matrix(-0.1143 0.3239 -0.2474 -8.734988e-02 1032.1912 -324.8588)" gradientUnits="userSpaceOnUse"><stop offset=".001" style="stop-color:#fff;stop-opacity:0"/><stop offset="1" style="stop-color:#fff"/></linearGradient><path style="fill:url(#SVGID_00000129893484647765521900000012607539339655477642_)" d="M242.1,132.5c-0.8,0.1-1.7,0.2-2.6,0.2 c-1.3,0.1-2.5-0.9-2.6-2.3c-0.1-1.3,0.9-2.5,2.3-2.6c10.3-0.6,17.2-4.8,17.3-4.9c1.2-0.7,2.7-0.3,3.4,0.8 c0.7,1.2,0.3,2.7-0.8,3.4C258.7,127.4,252.1,131.4,242.1,132.5z"/></g></g></g></svg>