<svg xmlns="http://www.w3.org/2000/svg" xmlns:xlink="http://www.w3.org/1999/xlink" id="_图层_1" x="0" y="0" version="1.1" viewBox="0 0 360.5 380.1" style="enable-background:new 0 0 360.5 380.1" xml:space="preserve"><style type="text/css">.st0{fill:#77e1ff}.st1{fill:#161ede}</style><path d="M52,42.5H31.6v224.4H52V42.5z" class="st0"/><path d="M92.8,42.5H72.4v224.4h20.4V42.5z" class="st0"/><path d="M133.6,42.5h-20.4v224.4h20.4V42.5z" class="st0"/><path d="M174.4,42.5H154v224.4h20.4V42.5z" class="st0"/><path d="M215.2,42.5h-20.4v224.4h20.4V42.5z" class="st0"/><path d="M256,42.5h-20.4v224.4H256V42.5z" class="st0"/><path d="M113.2,103.7H92.8v224.4h20.4V103.7z" class="st1"/><path d="M154,103.7h-20.4v224.4H154V103.7z" class="st1"/><path d="M194.8,103.7h-20.4v224.4h20.4V103.7z" class="st1"/><path d="M235.6,103.7h-20.4v224.4h20.4V103.7z" class="st1"/><path d="M276.4,103.7H256v224.4h20.4V103.7z" class="st1"/><path d="M317.2,103.7h-20.4v224.4h20.4V103.7z" class="st1"/></svg>