<svg xmlns="http://www.w3.org/2000/svg" xmlns:xlink="http://www.w3.org/1999/xlink" id="Layer_1" x="0" y="0" version="1.1" viewBox="0 0 194 48" style="enable-background:new 0 0 194 48" xml:space="preserve"><style type="text/css">.st0{fill:#fff}.st1{fill:#5e12a0}.st2{fill:url(#SVGID_1_)}.st3{fill:url(#SVGID_2_)}.st4{fill:#a98698}.st4,.st5,.st6{opacity:.6;enable-background:new}.st5{fill:url(#SVGID_3_)}.st6{fill:url(#SVGID_4_)}.st7{fill:url(#SVGID_5_)}.st8,.st9{opacity:.6}.st9{fill:url(#SVGID_6_);enable-background:new}.st10,.st11{opacity:.7}.st11{fill:url(#SVGID_7_);enable-background:new}.st12{fill:url(#SVGID_8_)}.st13,.st14{opacity:.6;fill:url(#SVGID_9_);enable-background:new}.st14{opacity:.2;fill:#fff}.st15{opacity:.4}.st16,.st17{opacity:.6;fill:url(#SVGID_10_);enable-background:new}.st17{opacity:.3;fill:#fff}.st18{fill:url(#SVGID_11_)}.st18,.st19,.st20,.st21,.st22{opacity:.6;enable-background:new}.st19{fill:url(#SVGID_12_)}.st20{fill:url(#SVGID_13_)}.st21{fill:url(#SVGID_14_)}.st22{fill:url(#SVGID_15_)}</style><path d="M52,27.2C52,20.7,56.7,16,63.3,16s11.3,4.7,11.3,11.1c0,6.5-4.7,11.1-11.3,11.1C56.8,38.3,52,33.7,52,27.2z M69.8,27.2c0-4-2.6-7.1-6.6-7.1c-4,0-6.5,3.1-6.5,7.1c0,4,2.6,7.1,6.5,7.1C67.2,34.2,69.8,31.2,69.8,27.2z" class="st0"/><path d="M76.3,34.9l2.5-3.5c1.5,1.6,3.9,2.9,6.8,2.9c2.5,0,3.8-1.2,3.8-2.4c0-3.8-12.4-1.2-12.4-9.3	C77,19,80,16,85.1,16c3.4,0,6.3,1,8.4,3L91,22.4c-1.7-1.6-4.1-2.4-6.3-2.4c-2,0-3.1,0.9-3.1,2.1c0,3.4,12.4,1.1,12.4,9.2	c0,4-2.8,6.9-8.6,6.9C81.3,38.3,78.3,36.9,76.3,34.9z" class="st0"/><path d="M115.9,37.9V22.8l-6.1,15.1h-2l-6.1-15.1v15.1h-4.6V16.4h6.4l5.2,13l5.2-13h6.5v21.5L115.9,37.9L115.9,37.9z" class="st0"/><path d="M123.7,27.2c0-6.5,4.7-11.1,11.3-11.1c6.5,0,11.3,4.7,11.3,11.1c0,6.5-4.7,11.1-11.3,11.1	C128.5,38.3,123.7,33.7,123.7,27.2z M141.5,27.2c0-4-2.6-7.1-6.6-7.1c-4,0-6.5,3.1-6.5,7.1c0,4,2.6,7.1,6.5,7.1	C138.9,34.2,141.5,31.2,141.5,27.2z" class="st0"/><path d="M148,34.9l2.5-3.5c1.5,1.6,3.9,2.9,6.8,2.9c2.5,0,3.8-1.2,3.8-2.4c0-3.8-12.4-1.2-12.4-9.3	c0-3.6,3.1-6.6,8.2-6.6c3.4,0,6.3,1,8.4,3l-2.6,3.3c-1.7-1.6-4.1-2.4-6.3-2.4c-2,0-3.1,0.9-3.1,2.1c0,3.4,12.4,1.1,12.4,9.2	c0,4-2.8,6.9-8.6,6.9C153,38.3,150,36.9,148,34.9z" class="st0"/><path d="M168.8,37.9V16.4h4.6v21.5L168.8,37.9L168.8,37.9z" class="st0"/><path d="M176.3,34.9l2.5-3.5c1.5,1.6,3.9,2.9,6.8,2.9c2.5,0,3.8-1.2,3.8-2.4c0-3.8-12.4-1.2-12.4-9.3	c0-3.6,3.1-6.6,8.2-6.6c3.4,0,6.3,1,8.4,3l-2.6,3.3c-1.7-1.6-4.1-2.4-6.3-2.4c-2,0-3.1,0.9-3.1,2.1c0,3.4,12.4,1.1,12.4,9.2	c0,4-2.8,6.9-8.6,6.9C181.2,38.3,178.2,36.9,176.3,34.9z" class="st0"/><path d="M43.9,8.5c-0.5-1.9-2.1-3.8-4.9-5.9C36.7,1,34.3,0,32.4,0c-0.4,0-0.7,0-1.1,0.1c-0.9,0.2-1.6,0.8-2.1,1.8	c-0.6,1.1-0.7,2.7-0.3,3.6c0.1,0.3,0.3,0.6,0.5,1c-1.8,1.1-2.9,1.5-3,1.5c4.8,1.6,8.8,5,11.3,9.5l0-0.4c0.1-1.2,0.5-2.5,0.9-3.9	c0.5,0.1,1,0.2,1.5,0.2c1.3,0,2.4-0.5,3.1-1.5C43.9,10.8,44.2,9.6,43.9,8.5z" class="st1"/><radialGradient id="SVGID_1_" cx="-189.051" cy="307.669" r="1" gradientTransform="matrix(15.5992 0 0 -15.8678 2991.2964 4888.5674)" gradientUnits="userSpaceOnUse"><stop offset="0" style="stop-color:#ffeaff;stop-opacity:.6"/><stop offset=".681" style="stop-color:#a087c9"/><stop offset="1" style="stop-color:#10002f"/></radialGradient><path d="M38.8,12c3.2,0.9,4.5-1.6,4-3.3c-0.5-1.7-1.9-3.4-4.5-5.3c-2.6-1.9-5.2-2.7-6.9-2.3c-1.7,0.4-2.2,2.9-1.7,3.9	c0.2,0.4,0.6,1,1.1,1.6c-0.7,0.5-1.3,0.8-1.8,1.1c3.2,1.5,6,3.7,8.1,6.6c0.2-1,0.6-1.8,0.9-2.6C38.3,11.9,38.6,11.9,38.8,12z" class="st2"/><radialGradient id="SVGID_2_" cx="-196.707" cy="317.917" r="1" gradientTransform="matrix(38.1657 0 0 -38.8229 7541.0508 12355.7422)" gradientUnits="userSpaceOnUse"><stop offset="0" style="stop-color:#ffeaff;stop-opacity:.6"/><stop offset=".681" style="stop-color:#a087c9"/><stop offset="1" style="stop-color:#10002f"/></radialGradient><path d="M20.7,46.8c10.8,0,19.5-8.9,19.5-19.8S31.4,7.1,20.7,7.1C9.9,7.1,1.2,16,1.2,27S9.9,46.8,20.7,46.8z" class="st3"/><path d="M41.3,7.1c-2.7-2.8-4.9-3.6-7.6-4.2c-2.1-0.5-1.5-1.7,1-1.5c-1.2-0.4-2.4-0.5-3.2-0.4c-1.7,0.4-2.2,2.9-1.7,3.9	c0.2,0.4,0.6,1,1.1,1.6c-0.9,0.6-1.7,1.1-2.4,1.5c0.3,0.1,0.7,0.3,1.2,0.6c1.2,0.6,2.5,1.7,2.5,1.7c-2-1.7-1.5-2.5,1.2-4.4	c0.8-0.6,2.4-0.5,3.8,0.2s3.1,2.6,3.1,2.6L38.5,12c0.1,0,0.2,0.1,0.3,0.1c1,0.3,1.8,0.2,2.4,0C42,11.6,43.9,10,41.3,7.1z" class="st4"/><path d="M33.7,4.7c0.7,0.3,1.6,0.8,2.7,1.5c1.3,0.9,2.5,1.9,3.2,2.7c-1.2,1.6-2,3.9-2.5,5.4c0.2,0.4,0.5,0.7,0.8,1.1	c0.2-0.9,0.7-2.2,1.2-3.5c0.1,0,0.3,0,0.5,0c0.4,0,0.9-0.1,1.3-0.4c0.3-0.2,0.6-0.6,0.6-1.3c0-0.7-0.5-1.5-1.6-2.6	C39.1,6.9,38,6,37,5.3c-3-2-5.1-2.6-6-1.6c-0.6,0.6-0.6,1.4-0.3,2c-1.1,0.7-2.1,1.3-2.7,1.6c0.4,0.1,0.8,0.3,1.2,0.5	C30.2,7.2,31.8,6.1,33.7,4.7z M40.3,9.7c0.1,0.2,0.1,0.4,0.1,0.5c0,0.3-0.1,0.4-0.2,0.5c-0.1,0.1-0.4,0.2-0.7,0.2	C39.8,10.4,40,10.1,40.3,9.7z M31.7,4.4c0.1-0.1,0.4-0.2,0.8-0.1c-0.3,0.3-0.7,0.5-1,0.8C31.4,4.9,31.4,4.6,31.7,4.4z" class="st1"/><path d="M20.7,6C9.2,6,0,15.4,0,27s9.2,21,20.7,21c11.4,0,20.7-9.4,20.7-21S32,6,20.7,6z M20.7,46.8	C9.9,46.8,1.2,38,1.2,27S9.9,7.1,20.7,7.1C31.4,7.1,40.2,16,40.2,27S31.4,46.8,20.7,46.8z" class="st1"/><linearGradient id="SVGID_3_" x1="17.434" x2="23.89" y1="3.442" y2="42.594" gradientTransform="matrix(1 0 0 -1 0 50)" gradientUnits="userSpaceOnUse"><stop offset="0" style="stop-color:#81ffff"/><stop offset=".62" style="stop-color:#fff;stop-opacity:0"/></linearGradient><path d="M20.7,46.8c10.8,0,19.5-8.9,19.5-19.8S31.4,7.1,20.7,7.1C9.9,7.1,1.2,16,1.2,27S9.9,46.8,20.7,46.8z" class="st5"/><path d="M20.5,44.4C9.9,42.7,2.7,32.5,4.4,21.7c0.8-4.8,3.1-8.9,6.5-11.8c-4.9,2.9-8.5,7.9-9.5,14	c-1.7,10.8,5.5,21,16.1,22.8c5.9,1,11.7-0.9,15.9-4.6C29.7,44.2,25.1,45.2,20.5,44.4z" class="st4"/><linearGradient id="SVGID_4_" x1="34.579" x2="18.194" y1="36.311" y2="21.532" gradientTransform="matrix(1 0 0 -1 0 50)" gradientUnits="userSpaceOnUse"><stop offset=".289" style="stop-color:#fff"/><stop offset=".78" style="stop-color:#fff;stop-opacity:0"/></linearGradient><path d="M23.8,7.4c-4.9-0.8-9.7,0.3-13.6,2.8c-0.1,0.1-0.1,0.1-0.1,0.1c1.5-0.9,3.7-1.7,3.7-1.7	c-5.7,3.3-7.4,7.1-7.4,7.1C8.5,11.5,15,8.4,20,8.2c5.1-0.2,8.4,1.3,12.4,4.6c4,3.3,6.5,10.2,6.2,15.6c-0.2,5.4-3,9.8-3,9.8	c1.9-2.5,3.1-4.4,3.8-6.2c0.1-0.6,0.3-1.1,0.3-1.7C41.6,19.3,34.4,9.2,23.8,7.4z" class="st6"/><linearGradient id="SVGID_5_" x1="2.094" x2="39.195" y1="13.769" y2="13.769" gradientTransform="matrix(1 0 0 -1 0 50)" gradientUnits="userSpaceOnUse"><stop offset="0" style="stop-color:#0002e9"/><stop offset=".995" style="stop-color:#ff00c7"/></linearGradient><path d="M39.2,26.8c0,10.4-8.3,18.9-18.5,18.9S2.1,37.2,2.1,26.8H39.2z" class="st7"/><g class="st8"><linearGradient id="SVGID_6_" x1="41.039" x2="20.534" y1="21.436" y2="2.385" gradientTransform="matrix(1 0 0 -1 0 50)" gradientUnits="userSpaceOnUse"><stop offset=".289" style="stop-color:#fff"/><stop offset=".78" style="stop-color:#fff;stop-opacity:0"/></linearGradient><path d="M37.7,26.8c0,10.2-7.9,18.5-17.8,18.9c0.2,0,0.5,0,0.7,0c10.2,0,18.5-8.4,18.5-18.9H37.7z" class="st9"/></g><g class="st10"><linearGradient id="SVGID_7_" x1="2.094" x2="21.919" y1="13.769" y2="13.769" gradientTransform="matrix(1 0 0 -1 0 50)" gradientUnits="userSpaceOnUse"><stop offset="0" style="stop-color:#000292"/><stop offset=".995" style="stop-color:#7d00c7"/></linearGradient><path d="M4.7,26.8H2.1c0,10.4,8.3,18.9,18.5,18.9c0.5,0,0.9,0,1.3,0C12.3,44.9,4.7,36.7,4.7,26.8z" class="st11"/></g><linearGradient id="SVGID_8_" x1="2.135" x2="39.161" y1="21.463" y2="21.463" gradientTransform="matrix(1 0 0 -1 0 50)" gradientUnits="userSpaceOnUse"><stop offset="0" style="stop-color:#000292"/><stop offset=".995" style="stop-color:#be00c7"/></linearGradient><path d="M39.2,27c0-2.2-3.7-3.4-8.6-3.8c-3.6-0.3-7.2,0.1-11.3,1.3c-3.6,1.1-6.8,0.9-9.1,0.6C5,24.5,2.1,24.4,2.1,27	c0,3.7,7.4,8.3,18.5,6.7c5.6-0.8,8.5-2.5,11.8-3.6C36,28.9,39.2,28.9,39.2,27z" class="st12"/><path d="M26.7,18c1.7,0,3.1-1.4,3.1-3.2s-1.4-3.2-3.1-3.2s-3.1,1.4-3.1,3.2S25,18,26.7,18z" class="st0"/><path d="M31.9,20.4c0.7,0,1.3-0.6,1.3-1.3s-0.6-1.3-1.3-1.3c-0.7,0-1.3,0.6-1.3,1.3S31.1,20.4,31.9,20.4z" class="st0"/><g class="st8"><linearGradient id="SVGID_9_" x1="38.6" x2="35.872" y1="41.623" y2="37.266" gradientTransform="matrix(1 0 0 -1 0 50)" gradientUnits="userSpaceOnUse"><stop offset=".289" style="stop-color:#fff"/><stop offset=".78" style="stop-color:#fff;stop-opacity:0"/></linearGradient><path d="M36.6,12.3C36.6,12.3,36.5,12.3,36.6,12.3c-0.3,0-0.4-0.2-0.4-0.5c0.3-1.6,1.6-3.2,1.7-3.3 c0.1-0.2,0.4-0.2,0.6,0c0.2,0.1,0.2,0.4,0,0.6c0,0-1.3,1.5-1.5,2.9C37,12.2,36.8,12.3,36.6,12.3z" class="st13"/></g><path d="M19.4,41.8c0.5,0,1-0.4,1-1s-0.4-1-1-1s-1,0.4-1,1S18.8,41.8,19.4,41.8z" class="st14"/><g class="st15"><linearGradient id="SVGID_10_" x1="18.385" x2="19.861" y1="9.198" y2="9.198" gradientTransform="matrix(1 0 0 -1 0 50)" gradientUnits="userSpaceOnUse"><stop offset=".289" style="stop-color:#fff"/><stop offset=".78" style="stop-color:#fff;stop-opacity:0"/></linearGradient><path d="M18.8,41.4c-0.4-0.4-0.4-1,0-1.4c0.1-0.1,0.1-0.1,0.2-0.2c-0.1,0-0.2,0.1-0.3,0.2c-0.4,0.4-0.4,1,0,1.4 c0.3,0.3,0.8,0.4,1.2,0.2C19.5,41.8,19.1,41.7,18.8,41.4z" class="st16"/></g><path d="M19.7,40.5c0.1,0,0.2-0.1,0.2-0.2c0-0.1-0.1-0.2-0.2-0.2c-0.1,0-0.2,0.1-0.2,0.2	C19.5,40.4,19.6,40.5,19.7,40.5z" class="st17"/><path d="M24.5,41.3c0.5,0,1-0.4,1-1c0-0.5-0.4-1-1-1c-0.5,0-1,0.4-1,1C23.5,40.8,23.9,41.3,24.5,41.3z" class="st14"/><g class="st15"><linearGradient id="SVGID_11_" x1="23.476" x2="24.953" y1="9.696" y2="9.696" gradientTransform="matrix(1 0 0 -1 0 50)" gradientUnits="userSpaceOnUse"><stop offset=".289" style="stop-color:#fff"/><stop offset=".78" style="stop-color:#fff;stop-opacity:0"/></linearGradient><path d="M23.9,40.9c-0.4-0.4-0.4-1,0-1.4c0.1-0.1,0.1-0.1,0.2-0.2c-0.1,0-0.2,0.1-0.3,0.2c-0.4,0.4-0.4,1,0,1.4 c0.3,0.3,0.8,0.4,1.2,0.2C24.6,41.3,24.2,41.2,23.9,40.9z" class="st18"/></g><path d="M24.8,40c0.1,0,0.2-0.1,0.2-0.2c0-0.1-0.1-0.2-0.2-0.2c-0.1,0-0.2,0.1-0.2,0.2C24.6,39.9,24.7,40,24.8,40z" class="st17"/><path d="M22,43.6c0.4,0,0.7-0.3,0.7-0.7s-0.3-0.7-0.7-0.7s-0.7,0.3-0.7,0.7S21.5,43.6,22,43.6z" class="st14"/><g class="st15"><linearGradient id="SVGID_12_" x1="21.216" x2="22.325" y1="7.127" y2="7.127" gradientTransform="matrix(1 0 0 -1 0 50)" gradientUnits="userSpaceOnUse"><stop offset=".289" style="stop-color:#fff"/><stop offset=".78" style="stop-color:#fff;stop-opacity:0"/></linearGradient><path d="M21.5,43.3c-0.3-0.3-0.3-0.8,0-1.1c0,0,0.1-0.1,0.1-0.1c-0.1,0-0.2,0.1-0.2,0.2c-0.3,0.3-0.3,0.8,0,1.1 c0.2,0.2,0.6,0.3,0.9,0.1C22.1,43.6,21.7,43.5,21.5,43.3z" class="st19"/></g><path d="M22.2,42.6c0.1,0,0.1-0.1,0.1-0.1c0-0.1-0.1-0.1-0.1-0.1c-0.1,0-0.1,0.1-0.1,0.1	C22.1,42.5,22.1,42.6,22.2,42.6z" class="st17"/><path d="M26.5,43.1c0.4,0,0.7-0.3,0.7-0.7c0-0.4-0.3-0.7-0.7-0.7s-0.7,0.3-0.7,0.7C25.7,42.7,26.1,43.1,26.5,43.1z" class="st14"/><g class="st15"><linearGradient id="SVGID_13_" x1="25.703" x2="26.812" y1="7.66" y2="7.66" gradientTransform="matrix(1 0 0 -1 0 50)" gradientUnits="userSpaceOnUse"><stop offset=".289" style="stop-color:#fff"/><stop offset=".78" style="stop-color:#fff;stop-opacity:0"/></linearGradient><path d="M26,42.8c-0.3-0.3-0.3-0.8,0-1.1c0,0,0.1-0.1,0.1-0.1c-0.1,0-0.2,0.1-0.2,0.2c-0.3,0.3-0.3,0.8,0,1.1 c0.2,0.2,0.6,0.3,0.9,0.1C26.6,43.1,26.2,43,26,42.8z" class="st20"/></g><path d="M26.7,42.1c0.1,0,0.1-0.1,0.1-0.1c0-0.1-0.1-0.1-0.1-0.1c-0.1,0-0.1,0.1-0.1,0.1C26.6,42,26.6,42.1,26.7,42.1z" class="st17"/><path d="M15.2,41.4c0.9,0,1.6-0.7,1.6-1.6c0-0.9-0.7-1.6-1.6-1.6c-0.9,0-1.6,0.7-1.6,1.6	C13.6,40.7,14.3,41.4,15.2,41.4z" class="st14"/><g class="st15"><linearGradient id="SVGID_14_" x1="13.614" x2="16.026" y1="10.155" y2="10.155" gradientTransform="matrix(1 0 0 -1 0 50)" gradientUnits="userSpaceOnUse"><stop offset=".289" style="stop-color:#fff"/><stop offset=".78" style="stop-color:#fff;stop-opacity:0"/></linearGradient><path d="M14.3,40.8c-0.6-0.6-0.6-1.7,0-2.3c0.1-0.1,0.2-0.2,0.3-0.2c-0.2,0.1-0.4,0.2-0.6,0.4c-0.6,0.6-0.6,1.7,0,2.3 c0.5,0.5,1.3,0.6,2,0.2C15.5,41.4,14.8,41.3,14.3,40.8z" class="st21"/></g><path d="M15.8,39.3c0.2,0,0.3-0.2,0.3-0.4s-0.2-0.4-0.3-0.4c-0.2,0-0.3,0.2-0.3,0.4S15.6,39.3,15.8,39.3z" class="st17"/><path d="M29.6,37.4c0.9,0,1.6-0.7,1.6-1.6c0-0.9-0.7-1.6-1.6-1.6c-0.9,0-1.6,0.7-1.6,1.6C28,36.7,28.7,37.4,29.6,37.4z" class="st14"/><g class="st15"><linearGradient id="SVGID_15_" x1="27.936" x2="30.348" y1="14.167" y2="14.167" gradientTransform="matrix(1 0 0 -1 0 50)" gradientUnits="userSpaceOnUse"><stop offset=".289" style="stop-color:#fff"/><stop offset=".78" style="stop-color:#fff;stop-opacity:0"/></linearGradient><path d="M28.6,36.8c-0.6-0.6-0.6-1.7,0-2.3c0.1-0.1,0.2-0.2,0.3-0.2c-0.2,0.1-0.4,0.2-0.6,0.4c-0.6,0.6-0.6,1.7,0,2.3 c0.5,0.5,1.3,0.6,2,0.2C29.8,37.4,29.1,37.3,28.6,36.8z" class="st22"/></g><path d="M30.1,35.3c0.2,0,0.3-0.2,0.3-0.4c0-0.2-0.2-0.4-0.3-0.4c-0.2,0-0.3,0.2-0.3,0.4	C29.8,35.1,29.9,35.3,30.1,35.3z" class="st17"/></svg>