<svg xmlns="http://www.w3.org/2000/svg" xmlns:xlink="http://www.w3.org/1999/xlink" id="Layer_1" x="0" y="0" version="1.1" viewBox="0 0 129.7 138.9" style="enable-background:new 0 0 129.7 138.9" xml:space="preserve"><style type="text/css">.st0{fill:#5e12a0}.st1{fill:url(#XMLID_186_)}.st2{fill:url(#XMLID_187_)}.st3{fill:#a98698}.st3,.st4,.st5{opacity:.6;enable-background:new}.st4{fill:url(#XMLID_188_)}.st5{fill:url(#XMLID_189_)}.st6{fill:url(#XMLID_190_)}.st7,.st8{opacity:.6}.st8{fill:url(#XMLID_191_);enable-background:new}.st9{opacity:.7}.st10{fill:url(#XMLID_192_)}.st11{fill:url(#XMLID_193_)}.st12{fill:#fff}.st13{fill:url(#XMLID_194_)}.st14{opacity:.2;fill:#fff;enable-background:new}.st15{opacity:.4}.st16,.st17{opacity:.6;fill:url(#XMLID_195_);enable-background:new}.st17{opacity:.3;fill:#fff}.st18{fill:url(#XMLID_196_)}.st18,.st19,.st20,.st21,.st22{opacity:.6;enable-background:new}.st19{fill:url(#XMLID_197_)}.st20{fill:url(#XMLID_198_)}.st21{fill:url(#XMLID_199_)}.st22{fill:url(#XMLID_200_)}</style><g id="XMLID_2_"><g id="XMLID_3_"><g id="XMLID_66_"><g id="XMLID_67_"><path id="XMLID_68_" d="M127.6,25.6c-1.4-5.3-5.9-10.6-14-16.5c-6.5-4.7-13.4-7.4-18.9-7.4c-1.1,0-2.1,0.1-3.1,0.3 c-2.5,0.5-4.7,2.3-6.1,5c-1.7,3.2-2.1,7.5-1,10.1c0.4,0.8,0.9,1.8,1.5,2.7c-5.3,3.2-8.3,4.1-8.7,4.2 c13.8,4.6,25.3,14.2,32.5,26.7l0.1-1.2c0.3-3.3,1.3-7.1,2.7-11c1.4,0.4,2.8,0.6,4.2,0.6l0,0c3.7,0,6.9-1.5,8.9-4.2 C127.7,32.2,128.5,28.6,127.6,25.6z" class="st0"/></g></g><g id="XMLID_62_"><g id="XMLID_64_"><radialGradient id="XMLID_186_" cx="122.976" cy="80.678" r="44.694" gradientTransform="matrix(1 0 0 -1 0 100.7784)" gradientUnits="userSpaceOnUse"><stop offset="0" style="stop-color:#ffeaff;stop-opacity:.6"/><stop offset=".681" style="stop-color:#a087c9"/><stop offset="1" style="stop-color:#10002f"/></radialGradient><path id="XMLID_65_" d="M113.2,35.6c9.1,2.5,12.8-4.5,11.6-9.2c-1.3-4.7-5.5-9.5-12.9-14.9S97,3.9,92.2,4.9 s-6.2,8.3-5,11.1c0.5,1.1,1.6,2.7,3.1,4.5c-1.9,1.3-3.7,2.3-5.2,3.2c9.2,4.1,17.2,10.5,23.2,18.5c0.7-2.7,1.7-5.1,2.6-7.2 C111.6,35.1,112.4,35.3,113.2,35.6z" class="st1"/></g><radialGradient id="XMLID_187_" cx="98.111" cy="61.617" r="109.351" gradientTransform="matrix(1 0 0 -1 0 100.7784)" gradientUnits="userSpaceOnUse"><stop offset="0" style="stop-color:#ffeaff;stop-opacity:.6"/><stop offset=".681" style="stop-color:#a087c9"/><stop offset="1" style="stop-color:#10002f"/></radialGradient><circle id="XMLID_63_" cx="61.1" cy="77.7" r="55.9" class="st2"/></g><path id="XMLID_61_" d="M120.2,21.8c-7.6-8-14-10.1-21.7-11.8c-6-1.4-4.4-4.8,2.9-4.1c-3.5-1.2-6.8-1.5-9.2-1 c-4.8,1-6.2,8.3-5,11.1c0.5,1.1,1.6,2.7,3.1,4.5c-2.7,1.8-5,3.1-6.9,4.1c0.9,0.4,2,0.9,3.3,1.6c3.4,1.8,7.1,4.8,7.1,4.8 c-5.6-4.8-4.4-7,3.3-12.4c2.4-1.7,6.8-1.5,10.9,0.6c4.1,2.1,8.9,7.4,8.9,7.4l-4.6,8.8c0.3,0.1,0.6,0.2,0.9,0.3 c2.9,0.8,5.2,0.6,7-0.1C122.3,34.3,127.8,29.9,120.2,21.8z" class="st3"/><g id="XMLID_56_"><path id="XMLID_57_" d="M98.4,14.8c2,0.8,4.6,2.2,7.8,4.3c3.8,2.5,7.1,5.3,9.2,7.5c-3.5,4.6-5.8,10.9-7.2,15.3 c0.7,1,1.5,2,2.2,3c0.7-2.5,1.9-6.2,3.5-9.9c0.4,0.1,0.9,0.1,1.4,0.1c1.2,0,2.6-0.2,3.7-1.1c0.8-0.6,1.7-1.7,1.6-3.7 c0-1.9-1.5-4.3-4.6-7.2c-2.2-2.1-5.2-4.4-8.2-6.5c-8.6-5.7-14.6-7.3-17.3-4.6c-1.8,1.8-1.6,4-1,5.6c-3.2,2.1-5.9,3.6-7.7,4.6 c1.2,0.4,2.3,0.9,3.5,1.4C88.5,21.9,93.1,19,98.4,14.8z M117.3,29.1c0.3,0.5,0.4,1,0.4,1.3c0,0.9-0.3,1.2-0.5,1.4 c-0.4,0.3-1.2,0.5-1.9,0.5C115.9,31.1,116.6,30.1,117.3,29.1z M92.6,14.2c0.3-0.3,1.1-0.5,2.4-0.3c-1,0.8-2,1.5-3,2.2 C91.9,15.4,92,14.7,92.6,14.2z" class="st0"/></g><g id="XMLID_52_"><path id="XMLID_53_" d="M61.1,18.5C28.4,18.5,1.9,45,1.9,77.7s26.5,59.2,59.2,59.2s59.2-26.5,59.2-59.2 S93.7,18.5,61.1,18.5z M61.1,133.6c-30.9,0-55.9-25-55.9-55.9s25-55.9,55.9-55.9s55.9,25,55.9,55.9S91.9,133.6,61.1,133.6z" class="st0"/></g><linearGradient id="XMLID_188_" x1="-1397.53" x2="-1285.711" y1="-1163.049" y2="-1163.049" gradientTransform="matrix(0.16 -0.9871 -0.9871 -0.16 -872.2866 -1432.7015)" gradientUnits="userSpaceOnUse"><stop offset="0" style="stop-color:#81ffff"/><stop offset=".62" style="stop-color:#fff;stop-opacity:0"/></linearGradient><circle id="XMLID_51_" cx="61.1" cy="77.7" r="55.9" class="st4"/><g id="XMLID_49_"><path id="XMLID_50_" d="M60.7,126.8c-30.5-4.9-51.2-33.6-46.2-64.1c2.2-13.5,9-25,18.6-33.3 c-14,8.1-24.4,22.2-27.2,39.4C1,99.3,21.7,128,52.1,132.9c17,2.8,33.4-2.5,45.5-12.9C86.9,126.2,73.9,128.9,60.7,126.8z" class="st3"/></g><linearGradient id="XMLID_189_" x1="100.461" x2="54.237" y1="61.079" y2="18.667" gradientTransform="matrix(1 0 0 -1 0 100.7784)" gradientUnits="userSpaceOnUse"><stop offset=".289" style="stop-color:#fff"/><stop offset=".78" style="stop-color:#fff;stop-opacity:0"/></linearGradient><path id="XMLID_48_" d="M70,22.6c-14.1-2.3-27.8,0.9-39,8c-0.2,0.2-0.4,0.4-0.4,0.4c4.3-2.6,10.6-4.9,10.6-4.9 C25,35.5,20,46.2,20,46.2C26.3,34,44.8,25.4,59.3,24.8c14.5-0.6,24,3.7,35.6,13c11.6,9.4,18.6,28.6,17.9,43.8 c-0.6,15.2-8.6,27.5-8.6,27.5c5.5-7.1,8.8-12.3,10.9-17.6c0.4-1.6,0.8-3.2,1-4.9C121.1,56.2,100.5,27.5,70,22.6z" class="st5"/><g id="XMLID_41_"><linearGradient id="XMLID_190_" x1="7.9" x2="114.2" y1="-2.972" y2="-2.972" gradientTransform="matrix(1 0 0 -1 0 100.7784)" gradientUnits="userSpaceOnUse"><stop offset="0" style="stop-color:#0002e9"/><stop offset=".995" style="stop-color:#ff00c7"/></linearGradient><path id="XMLID_47_" d="M114.2,77.2c0,29.3-23.8,53.1-53.1,53.1S7.9,106.5,7.9,77.2H114.2z" class="st6"/><g id="XMLID_45_" class="st7"><linearGradient id="XMLID_191_" x1="119.232" x2="61.411" y1="18.888" y2="-35.755" gradientTransform="matrix(1 0 0 -1 0 100.7784)" gradientUnits="userSpaceOnUse"><stop offset=".289" style="stop-color:#fff"/><stop offset=".78" style="stop-color:#fff;stop-opacity:0"/></linearGradient><path id="XMLID_46_" d="M110,77.2c0,28.6-22.6,52-51,53.1c0.7,0,1.4,0,2.1,0c29.3,0,53.1-23.8,53.1-53.1H110z" class="st8"/></g><g id="XMLID_43_" class="st9"><linearGradient id="XMLID_192_" x1="7.9" x2="64.7" y1="-2.972" y2="-2.972" gradientTransform="matrix(1 0 0 -1 0 100.7784)" gradientUnits="userSpaceOnUse"><stop offset="0" style="stop-color:#000292"/><stop offset=".995" style="stop-color:#7d00c7"/></linearGradient><path id="XMLID_44_" d="M15.4,77.2H7.9c0,29.3,23.8,53.1,53.1,53.1c1.3,0,2.5,0,3.7-0.1 C37.2,128.2,15.4,105.2,15.4,77.2z" class="st10"/></g><linearGradient id="XMLID_193_" x1="8.016" x2="114.103" y1="18.7" y2="18.7" gradientTransform="matrix(1 0 0 -1 0 100.7784)" gradientUnits="userSpaceOnUse"><stop offset="0" style="stop-color:#000292"/><stop offset=".995" style="stop-color:#be00c7"/></linearGradient><path id="XMLID_42_" d="M114.1,77.7c0-6.1-10.6-9.6-24.7-10.8c-10.2-0.8-20.5,0.2-32.3,3.8 c-10.2,3-19.4,2.5-26.1,1.7c-14.9-1.7-23.1-1.9-23.1,5.3c0,10.4,21.2,23.4,53,18.9c16.1-2.3,24.4-7,33.9-10.2 C105.1,83,114.1,83.1,114.1,77.7z" class="st11"/></g><circle id="XMLID_40_" cx="78.5" cy="43.5" r="9" class="st12"/><circle id="XMLID_39_" cx="93.2" cy="55.4" r="3.8" class="st12"/><g id="XMLID_37_" class="st7"><linearGradient id="XMLID_194_" x1="112.386" x2="104.761" y1="75.551" y2="63.161" gradientTransform="matrix(1 0 0 -1 0 100.7784)" gradientUnits="userSpaceOnUse"><stop offset=".289" style="stop-color:#fff"/><stop offset=".78" style="stop-color:#fff;stop-opacity:0"/></linearGradient><path id="XMLID_38_" d="M106.8,36.3c-0.1,0-0.2,0-0.2,0c-0.6-0.1-1-0.7-0.9-1.4c0.9-4.6,4.7-9,4.9-9.2 c0.4-0.5,1.2-0.5,1.6-0.1c0.5,0.4,0.5,1.2,0.1,1.6c-0.1,0.1-3.6,4.2-4.4,8.2C107.8,36,107.3,36.3,106.8,36.3z" class="st13"/></g><path id="XMLID_34_" d="M94.7,1.7c5.6,0,12.5,2.7,18.9,7.4c8.1,5.9,12.6,11.1,14,16.5c0.8,3.1,0.1,6.6-1.9,9.2 c-2.1,2.7-5.2,4.2-8.9,4.2l0,0c-1.3,0-2.7-0.2-4.2-0.6c-0.9,2.3-1.6,4.6-2.1,6.8c6.1,9.3,9.7,20.5,9.7,32.5 c0,32.7-26.5,59.2-59.2,59.2S1.9,110.4,1.9,77.7s26.5-59.2,59.2-59.2c7.2,0,14.1,1.3,20.5,3.7c1.2-0.6,2.7-1.4,4.4-2.4 c-0.6-0.9-1.2-1.8-1.5-2.7c-1.1-2.7-0.7-6.9,1-10.1c1.4-2.6,3.5-4.4,6.1-5C92.5,1.8,93.6,1.7,94.7,1.7 M94.7,0 c-1.2,0-2.4,0.1-3.5,0.4c-3,0.7-5.6,2.7-7.3,5.9c-1.9,3.7-2.4,8.5-1.1,11.6c0.2,0.4,0.4,0.9,0.7,1.4c-0.7,0.4-1.4,0.8-2.1,1.1 C74.8,18.1,68,16.9,61,16.9c-8.2,0-16.2,1.6-23.7,4.8c-7.3,3.1-13.8,7.5-19.4,13.1c-5.6,5.6-10,12.1-13.1,19.4 C1.6,61.7,0,69.7,0,77.9s1.6,16.2,4.8,23.7c3.1,7.3,7.5,13.8,13.1,19.4c5.6,5.6,12.1,10,19.4,13.1c7.5,3.2,15.5,4.8,23.7,4.8 s16.2-1.6,23.7-4.8c7.3-3.1,13.8-7.5,19.4-13.1c5.6-5.6,10-12.1,13.1-19.4c3.2-7.5,4.8-15.5,4.8-23.7c0-11.7-3.3-23-9.6-32.8 c0.3-1.5,0.8-3,1.3-4.5c1,0.2,2.1,0.3,3.1,0.3c4.2,0,7.9-1.7,10.3-4.9c2.3-3,3.2-7.2,2.2-10.7c-1.6-5.8-6.2-11.3-14.7-17.4 C107.9,2.8,100.6,0,94.7,0L94.7,0z" class="st12"/><g id="XMLID_29_"><circle id="XMLID_33_" cx="57.4" cy="116.6" r="2.8" class="st14"/><g id="XMLID_31_" class="st15"><linearGradient id="XMLID_195_" x1="54.575" x2="58.806" y1="-15.843" y2="-15.843" gradientTransform="matrix(1 0 0 -1 0 100.7784)" gradientUnits="userSpaceOnUse"><stop offset=".289" style="stop-color:#fff"/><stop offset=".78" style="stop-color:#fff;stop-opacity:0"/></linearGradient><path id="XMLID_32_" d="M55.8,118.4c-1.1-1.1-1.1-2.9,0-4c0.2-0.2,0.4-0.3,0.6-0.5c-0.4,0.1-0.7,0.3-1,0.6 c-1.1,1.1-1.1,2.9,0,4c0.9,0.9,2.3,1.1,3.4,0.5C57.8,119.4,56.6,119.2,55.8,118.4z" class="st16"/></g><circle id="XMLID_30_" cx="58.4" cy="115.2" r=".6" class="st17"/></g><g id="XMLID_24_"><circle id="XMLID_28_" cx="72" cy="115.2" r="2.8" class="st14"/><g id="XMLID_26_" class="st15"><linearGradient id="XMLID_196_" x1="69.162" x2="73.393" y1="-14.443" y2="-14.443" gradientTransform="matrix(1 0 0 -1 0 100.7784)" gradientUnits="userSpaceOnUse"><stop offset=".289" style="stop-color:#fff"/><stop offset=".78" style="stop-color:#fff;stop-opacity:0"/></linearGradient><path id="XMLID_27_" d="M70.4,117c-1.1-1.1-1.1-2.9,0-4c0.2-0.2,0.4-0.3,0.6-0.5c-0.4,0.1-0.7,0.3-1,0.6 c-1.1,1.1-1.1,2.9,0,4c0.9,0.9,2.3,1.1,3.4,0.5C72.4,118,71.2,117.8,70.4,117z" class="st18"/></g><circle id="XMLID_25_" cx="73" cy="113.8" r=".6" class="st17"/></g><g id="XMLID_19_"><circle id="XMLID_23_" cx="64.8" cy="122.4" r="2.1" class="st14"/><g id="XMLID_21_" class="st15"><linearGradient id="XMLID_197_" x1="62.687" x2="65.863" y1="-21.678" y2="-21.678" gradientTransform="matrix(1 0 0 -1 0 100.7784)" gradientUnits="userSpaceOnUse"><stop offset=".289" style="stop-color:#fff"/><stop offset=".78" style="stop-color:#fff;stop-opacity:0"/></linearGradient><path id="XMLID_22_" d="M63.6,123.7c-0.8-0.8-0.8-2.2,0-3c0.1-0.1,0.3-0.2,0.4-0.3c-0.3,0.1-0.5,0.3-0.7,0.5 c-0.8,0.8-0.8,2.2,0,3c0.7,0.7,1.7,0.8,2.6,0.3C65.1,124.5,64.2,124.3,63.6,123.7z" class="st19"/></g><circle id="XMLID_20_" cx="65.5" cy="121.3" r=".4" class="st17"/></g><g id="XMLID_14_"><circle id="XMLID_18_" cx="77.7" cy="120.9" r="2.1" class="st14"/><g id="XMLID_16_" class="st15"><linearGradient id="XMLID_198_" x1="75.544" x2="78.72" y1="-20.178" y2="-20.178" gradientTransform="matrix(1 0 0 -1 0 100.7784)" gradientUnits="userSpaceOnUse"><stop offset=".289" style="stop-color:#fff"/><stop offset=".78" style="stop-color:#fff;stop-opacity:0"/></linearGradient><path id="XMLID_17_" d="M76.5,122.2c-0.8-0.8-0.8-2.2,0-3c0.1-0.1,0.3-0.2,0.4-0.3c-0.3,0.1-0.5,0.3-0.7,0.5 c-0.8,0.8-0.8,2.2,0,3c0.7,0.7,1.7,0.8,2.6,0.3C78,123,77.1,122.8,76.5,122.2z" class="st20"/></g><circle id="XMLID_15_" cx="78.4" cy="119.8" r=".4" class="st17"/></g><g id="XMLID_9_"><circle id="XMLID_13_" cx="45.5" cy="113.8" r="4.6" class="st14"/><g id="XMLID_11_" class="st15"><linearGradient id="XMLID_199_" x1="40.904" x2="47.813" y1="-13.152" y2="-13.152" gradientTransform="matrix(1 0 0 -1 0 100.7784)" gradientUnits="userSpaceOnUse"><stop offset=".289" style="stop-color:#fff"/><stop offset=".78" style="stop-color:#fff;stop-opacity:0"/></linearGradient><path id="XMLID_12_" d="M42.9,116.7c-1.8-1.8-1.8-4.7,0-6.5c0.3-0.3,0.6-0.5,1-0.7c-0.6,0.2-1.1,0.6-1.6,1 c-1.8,1.8-1.8,4.7,0,6.5c1.5,1.5,3.8,1.8,5.6,0.7C46.2,118.4,44.2,118.1,42.9,116.7z" class="st21"/></g><circle id="XMLID_10_" cx="47.1" cy="111.4" r="1" class="st17"/></g><g id="XMLID_4_"><circle id="XMLID_8_" cx="86.6" cy="102.5" r="4.6" class="st14"/><g id="XMLID_6_" class="st15"><linearGradient id="XMLID_200_" x1="81.942" x2="88.852" y1="-1.852" y2="-1.852" gradientTransform="matrix(1 0 0 -1 0 100.7784)" gradientUnits="userSpaceOnUse"><stop offset=".289" style="stop-color:#fff"/><stop offset=".78" style="stop-color:#fff;stop-opacity:0"/></linearGradient><path id="XMLID_7_" d="M83.9,105.4c-1.8-1.8-1.8-4.7,0-6.5c0.3-0.3,0.6-0.5,1-0.7c-0.6,0.2-1.1,0.6-1.6,1 c-1.8,1.8-1.8,4.7,0,6.5c1.5,1.5,3.8,1.8,5.6,0.7C87.2,107.1,85.3,106.8,83.9,105.4z" class="st22"/></g><circle id="XMLID_5_" cx="88.2" cy="100.1" r="1" class="st17"/></g></g></g></svg>