<svg xmlns="http://www.w3.org/2000/svg" xmlns:xlink="http://www.w3.org/1999/xlink" id="Layer_1" x="0" y="0" version="1.1" viewBox="0 0 100 100" style="enable-background:new 0 0 100 100" xml:space="preserve"><style type="text/css">.st0{fill:url(#SVGID_1_)}.st1{fill:#5e12a0}.st2{opacity:.6;fill:#29143f}.st2,.st3,.st4{enable-background:new}.st3{opacity:.6;fill:#a98698}.st4{fill:url(#SVGID_2_)}.st4,.st5,.st6{opacity:.6}.st6{fill:url(#SVGID_3_);enable-background:new}.st7,.st8{opacity:.7}.st8{fill:url(#SVGID_4_);enable-background:new}.st9{fill:#fff}.st10,.st11{opacity:.6;fill:url(#SVGID_5_);enable-background:new}.st11{opacity:.2;fill:#fff}.st12{opacity:.4}.st13,.st14{opacity:.6;fill:url(#SVGID_6_);enable-background:new}.st14{opacity:.3;fill:#fff}.st15{fill:url(#SVGID_7_)}.st15,.st16,.st17,.st18,.st19{opacity:.6;enable-background:new}.st16{fill:url(#SVGID_8_)}.st17{fill:url(#SVGID_9_)}.st18{fill:url(#SVGID_10_)}.st19{fill:url(#SVGID_11_)}</style><radialGradient id="SVGID_1_" cx="-241.488" cy="344.152" r="1.855" gradientTransform="matrix(38.1657 0 0 -38.8229 9287.8389 13391.1367)" gradientUnits="userSpaceOnUse"><stop offset="0" style="stop-color:#ffeaff;stop-opacity:.6"/><stop offset=".681" style="stop-color:#a087c9"/><stop offset="1" style="stop-color:#10002f"/></radialGradient><path d="M47.3,92.3c20,0,36.2-16.5,36.2-36.8S67.3,18.7,47.3,18.7c-20,0-36.2,16.5-36.2,36.8S27.3,92.3,47.3,92.3z" class="st0"/><path d="M47.3,16.6C26.2,16.6,9,34,9,55.5s17.2,39,38.3,39c21.2,0,38.3-17.4,38.3-39S68.4,16.6,47.3,16.6z M47.3,92.3	c-20,0-36.2-16.5-36.2-36.8s16.2-36.8,36.2-36.8c20,0,36.2,16.5,36.2,36.8S67.3,92.3,47.3,92.3z" class="st1"/><path d="M47.3,92.3c20,0,36.2-16.5,36.2-36.8S67.3,18.7,47.3,18.7c-20,0-36.2,16.5-36.2,36.8S27.3,92.3,47.3,92.3z" class="st2"/><path d="M47.1,87.9c-19.7-3.2-33.1-22.1-29.9-42.2c1.4-8.9,5.8-16.5,12-21.9c-9.1,5.3-15.8,14.6-17.6,25.9	c-3.2,20.1,10.2,39,29.9,42.2c11,1.8,21.6-1.6,29.4-8.5C64,87.5,55.6,89.2,47.1,87.9z" class="st3"/><linearGradient id="SVGID_2_" x1="73.125" x2="42.74" y1="71.121" y2="43.714" gradientTransform="matrix(1 0 0 -1 0 102)" gradientUnits="userSpaceOnUse"><stop offset=".289" style="stop-color:#fff"/><stop offset=".78" style="stop-color:#fff;stop-opacity:0"/></linearGradient><path d="M53.1,19.3c-9.1-1.5-18,0.6-25.2,5.3c-0.1,0.1-0.3,0.3-0.3,0.3c2.8-1.7,6.9-3.2,6.9-3.2	C24,27.7,20.7,34.8,20.7,34.8c4.1-8,16.1-13.7,25.4-14.1c9.4-0.4,15.5,2.4,23,8.6c7.5,6.2,12,18.8,11.6,28.8	c-0.4,10-5.6,18.1-5.6,18.1c3.6-4.7,5.7-8.1,7.1-11.6c0.3-1.1,0.5-2.1,0.6-3.2C86.2,41.4,72.8,22.5,53.1,19.3z" class="st4"/><g class="st5"><linearGradient id="SVGID_3_" x1="85.105" x2="47.079" y1="43.536" y2="8.207" gradientTransform="matrix(1 0 0 -1 0 102)" gradientUnits="userSpaceOnUse"><stop offset=".289" style="stop-color:#fff"/><stop offset=".78" style="stop-color:#fff;stop-opacity:0"/></linearGradient><path d="M79,55.2c0,18.8-14.6,34.2-33,35c0.5,0,0.9,0,1.4,0c19,0,34.4-15.7,34.4-35H79z" class="st6"/></g><g class="st7"><linearGradient id="SVGID_4_" x1="12.883" x2="49.647" y1="29.318" y2="29.318" gradientTransform="matrix(1 0 0 -1 0 102)" gradientUnits="userSpaceOnUse"><stop offset="0" style="stop-color:#000292"/><stop offset=".995" style="stop-color:#7d00c7"/></linearGradient><path d="M17.7,55.2h-4.9c0,19.3,15.4,35,34.4,35c0.8,0,1.6,0,2.4-0.1C31.8,88.8,17.7,73.6,17.7,55.2z" class="st8"/></g><path d="M58.6,38.9c3.2,0,5.8-2.7,5.8-5.9c0-3.3-2.6-5.9-5.8-5.9s-5.8,2.7-5.8,5.9C52.8,36.3,55.4,38.9,58.6,38.9z" class="st9"/><path d="M68.1,43.3c1.4,0,2.5-1.1,2.5-2.5c0-1.4-1.1-2.5-2.5-2.5s-2.5,1.1-2.5,2.5C65.6,42.2,66.7,43.3,68.1,43.3z" class="st9"/><g class="st5"><linearGradient id="SVGID_5_" x1="80.582" x2="75.524" y1="80.973" y2="72.892" gradientTransform="matrix(1 0 0 -1 0 102)" gradientUnits="userSpaceOnUse"><stop offset=".289" style="stop-color:#fff"/><stop offset=".78" style="stop-color:#fff;stop-opacity:0"/></linearGradient><path d="M76.9,28.3c-0.1,0-0.1,0-0.1,0c-0.4-0.1-0.6-0.5-0.6-0.9c0.6-3,3-5.9,3.2-6.1c0.3-0.3,0.8-0.3,1-0.1 c0.3,0.3,0.3,0.8,0.1,1.1c-0.1,0.1-2.3,2.8-2.8,5.4C77.5,28.1,77.2,28.3,76.9,28.3z" class="st10"/></g><path d="M44.9,83c1,0,1.8-0.8,1.8-1.8s-0.8-1.8-1.8-1.8c-1,0-1.8,0.8-1.8,1.8S43.9,83,44.9,83z" class="st11"/><g class="st12"><linearGradient id="SVGID_6_" x1="43.093" x2="45.832" y1="20.841" y2="20.841" gradientTransform="matrix(1 0 0 -1 0 102)" gradientUnits="userSpaceOnUse"><stop offset=".289" style="stop-color:#fff"/><stop offset=".78" style="stop-color:#fff;stop-opacity:0"/></linearGradient><path d="M43.9,82.3c-0.7-0.7-0.7-1.9,0-2.6c0.1-0.1,0.3-0.2,0.4-0.3c-0.3,0.1-0.5,0.2-0.6,0.4c-0.7,0.7-0.7,1.9,0,2.6 c0.6,0.6,1.5,0.7,2.2,0.3C45.2,83,44.4,82.9,43.9,82.3z" class="st13"/></g><path d="M45.6,80.6c0.2,0,0.4-0.2,0.4-0.4c0-0.2-0.2-0.4-0.4-0.4c-0.2,0-0.4,0.2-0.4,0.4	C45.2,80.4,45.4,80.6,45.6,80.6z" class="st14"/><path d="M54.4,82.1c1,0,1.8-0.8,1.8-1.8c0-1-0.8-1.8-1.8-1.8c-1,0-1.8,0.8-1.8,1.8C52.6,81.2,53.4,82.1,54.4,82.1z" class="st11"/><g class="st12"><linearGradient id="SVGID_7_" x1="52.535" x2="55.273" y1="21.764" y2="21.764" gradientTransform="matrix(1 0 0 -1 0 102)" gradientUnits="userSpaceOnUse"><stop offset=".289" style="stop-color:#fff"/><stop offset=".78" style="stop-color:#fff;stop-opacity:0"/></linearGradient><path d="M53.3,81.4c-0.7-0.7-0.7-1.9,0-2.6c0.1-0.1,0.3-0.2,0.4-0.3c-0.3,0.1-0.5,0.2-0.6,0.4c-0.7,0.7-0.7,1.9,0,2.6 c0.6,0.6,1.5,0.7,2.2,0.3C54.6,82.1,53.9,81.9,53.3,81.4z" class="st15"/></g><path d="M55,79.7c0.2,0,0.4-0.2,0.4-0.4c0-0.2-0.2-0.4-0.4-0.4c-0.2,0-0.4,0.2-0.4,0.4C54.6,79.5,54.8,79.7,55,79.7z" class="st14"/><path d="M49.7,86.3c0.8,0,1.4-0.6,1.4-1.4s-0.6-1.4-1.4-1.4c-0.8,0-1.4,0.6-1.4,1.4S49,86.3,49.7,86.3z" class="st11"/><g class="st12"><linearGradient id="SVGID_8_" x1="48.344" x2="50.4" y1="17" y2="17" gradientTransform="matrix(1 0 0 -1 0 102)" gradientUnits="userSpaceOnUse"><stop offset=".289" style="stop-color:#fff"/><stop offset=".78" style="stop-color:#fff;stop-opacity:0"/></linearGradient><path d="M48.9,85.8c-0.5-0.5-0.5-1.4,0-2c0.1-0.1,0.2-0.1,0.3-0.2c-0.2,0.1-0.3,0.2-0.5,0.3c-0.5,0.5-0.5,1.4,0,2 c0.5,0.5,1.1,0.5,1.7,0.2C49.9,86.3,49.3,86.2,48.9,85.8z" class="st16"/></g><path d="M50.2,84.5c0.1,0,0.3-0.1,0.3-0.3c0-0.1-0.1-0.3-0.3-0.3c-0.1,0-0.3,0.1-0.3,0.3C49.9,84.4,50,84.5,50.2,84.5z" class="st14"/><path d="M58.1,85.4c0.8,0,1.4-0.6,1.4-1.4s-0.6-1.4-1.4-1.4c-0.8,0-1.4,0.6-1.4,1.4S57.3,85.4,58.1,85.4z" class="st11"/><g class="st12"><linearGradient id="SVGID_9_" x1="56.665" x2="58.721" y1="17.988" y2="17.988" gradientTransform="matrix(1 0 0 -1 0 102)" gradientUnits="userSpaceOnUse"><stop offset=".289" style="stop-color:#fff"/><stop offset=".78" style="stop-color:#fff;stop-opacity:0"/></linearGradient><path d="M57.3,84.8c-0.5-0.5-0.5-1.4,0-2c0.1-0.1,0.2-0.1,0.3-0.2c-0.2,0.1-0.3,0.2-0.5,0.3c-0.5,0.5-0.5,1.4,0,2 c0.5,0.5,1.1,0.5,1.7,0.2C58.3,85.4,57.7,85.2,57.3,84.8z" class="st17"/></g><path d="M58.5,83.5c0.1,0,0.3-0.1,0.3-0.3c0-0.1-0.1-0.3-0.3-0.3c-0.1,0-0.3,0.1-0.3,0.3	C58.3,83.4,58.4,83.5,58.5,83.5z" class="st14"/><path d="M37.2,82.3c1.6,0,3-1.4,3-3c0-1.7-1.3-3-3-3c-1.6,0-3,1.4-3,3C34.2,81,35.6,82.3,37.2,82.3z" class="st11"/><g class="st12"><linearGradient id="SVGID_10_" x1="34.246" x2="38.718" y1="22.616" y2="22.616" gradientTransform="matrix(1 0 0 -1 0 102)" gradientUnits="userSpaceOnUse"><stop offset=".289" style="stop-color:#fff"/><stop offset=".78" style="stop-color:#fff;stop-opacity:0"/></linearGradient><path d="M35.5,81.2c-1.2-1.2-1.2-3.1,0-4.3c0.2-0.2,0.4-0.3,0.6-0.5c-0.4,0.1-0.7,0.4-1,0.7c-1.2,1.2-1.2,3.1,0,4.3 c1,1,2.5,1.2,3.6,0.5C37.7,82.3,36.4,82.1,35.5,81.2z" class="st18"/></g><path d="M38.3,78.4c0.4,0,0.6-0.3,0.6-0.7s-0.3-0.7-0.6-0.7c-0.4,0-0.6,0.3-0.6,0.7S37.9,78.4,38.3,78.4z" class="st14"/><path d="M63.8,74.9c1.6,0,3-1.4,3-3c0-1.7-1.3-3-3-3c-1.6,0-3,1.4-3,3C60.8,73.5,62.2,74.9,63.8,74.9z" class="st11"/><g class="st12"><linearGradient id="SVGID_11_" x1="60.807" x2="65.279" y1="30.055" y2="30.055" gradientTransform="matrix(1 0 0 -1 0 102)" gradientUnits="userSpaceOnUse"><stop offset=".289" style="stop-color:#fff"/><stop offset=".78" style="stop-color:#fff;stop-opacity:0"/></linearGradient><path d="M62.1,73.8c-1.2-1.2-1.2-3.1,0-4.3c0.2-0.2,0.4-0.3,0.6-0.5c-0.4,0.1-0.7,0.4-1,0.7c-1.2,1.2-1.2,3.1,0,4.3 c1,1,2.5,1.2,3.6,0.5C64.2,74.9,63,74.7,62.1,73.8z" class="st19"/></g><path d="M64.9,70.9c0.4,0,0.6-0.3,0.6-0.7c0-0.4-0.3-0.7-0.6-0.7c-0.4,0-0.6,0.3-0.6,0.7	C64.2,70.6,64.5,70.9,64.9,70.9z" class="st14"/></svg>