<svg xmlns="http://www.w3.org/2000/svg" xmlns:xlink="http://www.w3.org/1999/xlink" id="Layer_1" x="0" y="0" version="1.1" viewBox="0 0 24 24" style="enable-background:new 0 0 24 24" xml:space="preserve"><style type="text/css">.st0{fill-rule:evenodd;clip-rule:evenodd}</style><g><path d="M12,21.8V18c4,0,7.1-4,5.6-8.2C17,8.2,15.8,7,14.2,6.4C10,4.9,6,8,6,12l0,0H2.2c0-6.4,6.2-11.4,12.9-9.3 C18,3.6,20.4,6,21.3,8.9C23.4,15.6,18.4,21.8,12,21.8L12,21.8z"/><polygon points="12 18 8.2 18 8.2 14.2 8.2 14.2 12 14.2 12 14.2" class="st0"/><polygon points="8.2 20.9 5.3 20.9 5.3 20.9 5.3 18 8.2 18" class="st0"/><polygon points="5.3 18 2.9 18 2.9 18 2.9 15.6 2.9 15.6 5.3 15.6 5.3 15.6" class="st0"/></g></svg>